<?xml version="1.0" encoding="utf-8"?>
<!-- Generator: Adobe Illustrator 17.0.0, SVG Export Plug-In . SVG Version: 6.00 Build 0)  -->
<!DOCTYPE svg PUBLIC "-//W3C//DTD SVG 1.1//EN" "http://www.w3.org/Graphics/SVG/1.1/DTD/svg11.dtd">
<svg version="1.1" id="Capa_1" xmlns="http://www.w3.org/2000/svg" xmlns:xlink="http://www.w3.org/1999/xlink" x="0px" y="0px"
	 width="130px" height="68px" viewBox="0 0 130 68" enable-background="new 0 0 130 68" xml:space="preserve">
<g>
	<g>
		<g>
			<path id="SVGID_1_" fill="#65BC46" d="M126.427,9.801c-0.044-0.056-0.087-0.113-0.132-0.169c-0.066-0.08-0.131-0.159-0.2-0.237
				c-0.716-0.844-1.578-1.637-2.576-2.376c-0.08-0.059-0.157-0.119-0.238-0.176c-9.565-6.847-31.071-8.962-56.578-4.483
				C33.386,8.209,5.118,23.221,0.867,36.814c-5.437,14.411,15.265,28.085,46.585,30.649c15.323,1.254,30.372-0.382,42.484-4.059
				c3.84-1.02,7.776-2.577,11.646-4.638c1.595-0.824,3.082-1.697,4.456-2.612c2.718-1.753,5.368-3.755,7.887-5.998
				C129.045,36.696,134.162,19.373,126.427,9.801z"/>
		</g>
	</g>
	<g>
		<g>
			<defs>
				<path id="SVGID_2_" d="M126.427,9.801c-0.044-0.056-0.087-0.113-0.132-0.169c-0.066-0.08-0.131-0.159-0.2-0.237
					c-0.716-0.844-1.578-1.637-2.576-2.376c-0.08-0.059-0.157-0.119-0.238-0.176c-9.565-6.847-31.071-8.962-56.578-4.483
					C33.386,8.209,5.118,23.221,0.867,36.814c-5.437,14.411,15.265,28.085,46.585,30.649c15.323,1.254,30.372-0.382,42.484-4.059
					c3.84-1.02,7.776-2.577,11.646-4.638c1.595-0.824,3.082-1.697,4.456-2.612c2.718-1.753,5.368-3.755,7.887-5.998
					C129.045,36.696,134.162,19.373,126.427,9.801z"/>
			</defs>
			<clipPath id="SVGID_3_">
				<use xlink:href="#SVGID_2_"  overflow="visible"/>
			</clipPath>
			<path clip-path="url(#SVGID_3_)" fill="#FF5000" d="M111.42,11.799c-0.038-0.054-0.078-0.108-0.117-0.161
				c-0.058-0.076-0.116-0.152-0.176-0.226c-0.634-0.805-1.398-1.56-2.283-2.264c-0.07-0.056-0.14-0.113-0.211-0.168
				c-8.476-6.527-27.529-8.542-50.131-4.273C28.982,10.282,3.937,24.591,0.17,37.55c-4.818,13.737,13.525,26.771,41.276,29.216
				c13.577,1.195,26.911-0.364,37.643-3.869c3.403-0.972,6.89-2.456,10.319-4.421c1.413-0.786,2.731-1.617,3.948-2.49
				c2.408-1.67,4.756-3.58,6.988-5.718C113.74,37.437,118.273,20.923,111.42,11.799z"/>
		</g>
	</g>
	<g>
		<polygon fill="#001689" stroke="#001689" stroke-width="0.0037" stroke-miterlimit="10" points="48.958,22.116 37.076,22.116 
			30.186,31.456 31.967,22.116 21.776,22.116 16.757,48.483 26.948,48.483 28.941,37.957 32.543,48.483 44.017,48.483 
			37.673,35.299 		"/>
		<polygon fill="#001689" stroke="#001689" stroke-width="0.0037" stroke-miterlimit="10" points="66.444,22.116 64.871,30.551 
			59.004,30.551 60.576,22.116 50.387,22.116 45.367,48.483 55.563,48.483 57.183,39.809 63.05,39.809 61.43,48.483 71.619,48.483 
			76.639,22.116 		"/>
		<path fill="#001689" stroke="#001689" stroke-width="0.0037" stroke-miterlimit="10" d="M81.752,18.293l-1.866,9.717h14.55
			c0,0-9.702,8.739-17.948,24.297H88.65c6.917-15.181,15.978-24.297,15.978-24.297l1.88-9.717H81.752z"/>
		<g>
			<g>
				<path fill="#001689" d="M96.844,43.692c1.13,0,2.056,0.927,2.056,2.056c0,1.13-0.927,2.056-2.056,2.056
					c-1.13,0-2.055-0.927-2.055-2.056C94.789,44.618,95.715,43.692,96.844,43.692z M96.844,47.341c0.878,0,1.594-0.716,1.594-1.593
					c0-0.878-0.715-1.594-1.594-1.594c-0.878,0-1.593,0.716-1.593,1.594C95.251,46.626,95.966,47.341,96.844,47.341z M96.016,46.781
					v-2.121h0.869c0.586,0,0.789,0.349,0.789,0.642c0,0.334-0.171,0.536-0.455,0.634l0.561,0.845H97.3l-0.52-0.789h-0.341v0.789
					H96.016z M96.795,45.634c0.317,0,0.455-0.097,0.455-0.325c0-0.195-0.146-0.285-0.414-0.285h-0.398v0.61H96.795z"/>
			</g>
		</g>
		<polygon fill="#001689" stroke="#001689" stroke-width="0.0037" stroke-miterlimit="10" points="83.749,32.136 78.329,32.136 
			77.078,38.707 82.259,38.707 		"/>
	</g>
</g>
</svg>
